<svg id="visual" viewBox="0 0 900 600" width="900" height="600" xmlns="http://www.w3.org/2000/svg" xmlns:xlink="http://www.w3.org/1999/xlink" version="1.1"><rect x="0" y="0" width="900" height="600" fill="#001220"></rect><defs><linearGradient id="grad1_0" x1="33.3%" y1="0%" x2="100%" y2="100%"><stop offset="20%" stop-color="#001220" stop-opacity="1"></stop><stop offset="80%" stop-color="#001220" stop-opacity="1"></stop></linearGradient></defs><defs><linearGradient id="grad2_0" x1="0%" y1="0%" x2="66.7%" y2="100%"><stop offset="20%" stop-color="#001220" stop-opacity="1"></stop><stop offset="80%" stop-color="#001220" stop-opacity="1"></stop></linearGradient></defs><g transform="translate(900, 0)"><path d="M0 405.6C-62.2 380.5 -124.4 355.4 -187.5 324.8C-250.6 294.1 -314.8 257.9 -351.3 202.8C-387.8 147.8 -396.7 73.9 -405.6 0L0 0Z" fill="#0066FF"></path></g><g transform="translate(0, 600)"><path d="M0 -405.6C71.7 -395.4 143.4 -385.3 202.8 -351.3C262.3 -317.3 309.5 -259.5 341.2 -197C373 -134.5 389.3 -67.2 405.6 0L0 0Z" fill="#0066FF"></path></g></svg>